<?xml version="1.0" standalone="no"?>
<!DOCTYPE svg PUBLIC "-//W3C//DTD SVG 20010904//EN"
 "http://www.w3.org/TR/2001/REC-SVG-20010904/DTD/svg10.dtd">
<svg version="1.0" xmlns="http://www.w3.org/2000/svg"
 width="538.000000pt" height="162.000000pt" viewBox="0 0 538.000000 162.000000"
 preserveAspectRatio="xMidYMid meet">
<metadata>
Created by potrace 1.11, written by Peter Selinger 2001-2013
</metadata>
<g transform="translate(0.000000,162.000000) scale(0.100000,-0.100000)"
fill="#000000" stroke="none">
<path d="M1460 1218 l0 -81 -21 19 c-30 27 -118 26 -155 -2 -47 -35 -67 -70
-72 -127 -6 -73 11 -118 59 -161 33 -31 46 -36 88 -36 34 0 56 6 75 21 l26 20
0 -20 c0 -18 6 -21 50 -21 l50 0 0 235 0 235 -50 0 -50 0 0 -82z m-33 -133
c25 -18 44 -74 36 -107 -16 -66 -89 -90 -133 -43 -40 42 -26 135 23 155 33 13
50 12 74 -5z"/>
<path d="M1660 1065 l0 -235 45 0 45 0 0 100 c0 109 10 142 47 159 33 15 40
14 63 -9 18 -18 20 -33 20 -135 l0 -115 50 0 50 0 0 118 c0 141 -17 189 -73
215 -45 22 -74 21 -120 -2 l-37 -19 0 79 0 79 -45 0 -45 0 0 -235z"/>
<path d="M475 1166 c-84 -37 -121 -153 -79 -242 36 -75 136 -106 214 -65 22
11 40 19 40 17 0 -2 -5 -17 -11 -35 -20 -56 -105 -79 -170 -45 -17 8 -32 14
-34 12 -1 -2 -10 -18 -19 -36 l-17 -33 46 -20 c56 -25 136 -27 186 -6 20 8 49
32 65 53 l29 37 3 184 3 183 -45 0 c-34 0 -46 -4 -46 -15 0 -19 -3 -19 -42 5
-38 23 -80 25 -123 6z m139 -96 c28 -27 25 -94 -4 -125 -64 -68 -162 12 -125
102 23 54 86 66 129 23z"/>
<path d="M902 1159 c-62 -31 -86 -70 -90 -149 -3 -55 0 -70 20 -100 39 -57 82
-80 151 -80 42 0 70 6 98 22 22 12 39 25 39 28 0 4 -11 17 -25 30 -23 21 -27
22 -50 10 -43 -23 -96 -16 -124 17 l-24 28 126 3 127 3 0 48 c0 86 -63 152
-152 158 -40 3 -63 -1 -96 -18z m126 -75 c43 -30 28 -44 -48 -44 -54 0 -70 3
-70 14 0 20 39 46 70 46 14 0 36 -7 48 -16z"/>
<path d="M2142 1159 c-62 -31 -86 -70 -90 -149 -3 -55 0 -70 20 -100 39 -57
82 -80 151 -80 42 0 70 6 98 22 22 12 39 25 39 28 0 4 -11 17 -25 30 -23 21
-27 22 -50 10 -43 -23 -96 -16 -124 17 l-24 28 126 3 127 3 0 48 c0 86 -63
152 -152 158 -40 3 -63 -1 -96 -18z m126 -75 c43 -30 28 -44 -48 -44 -54 0
-70 3 -70 14 0 20 39 46 70 46 14 0 36 -7 48 -16z"/>
<path d="M2663 1173 l-23 -4 0 -230 0 -229 45 0 45 0 0 81 0 80 26 -20 c37
-29 110 -28 155 2 42 28 79 98 79 151 0 51 -34 120 -72 147 -42 31 -104 35
-150 11 -30 -16 -38 -17 -38 -6 0 8 -4 14 -9 14 -5 0 -15 2 -23 4 -7 2 -23 1
-35 -1z m198 -102 c73 -74 -1 -199 -90 -151 -48 25 -51 123 -4 160 35 27 59
25 94 -9z"/>
<path d="M3126 1165 c-63 -24 -69 -32 -44 -65 20 -27 22 -28 54 -14 41 17 96
18 112 2 25 -25 12 -35 -54 -42 -108 -11 -144 -39 -144 -111 0 -29 8 -45 34
-71 30 -30 41 -34 84 -34 35 0 57 6 76 21 l26 20 0 -20 c0 -18 6 -21 45 -21
l45 0 0 120 c0 133 -12 177 -54 205 -35 23 -131 28 -180 10z m134 -204 c0 -23
-22 -47 -51 -56 -20 -7 -69 17 -69 35 0 22 34 40 76 40 37 0 44 -3 44 -19z"/>
<path d="M3447 1173 c-1 0 -1 -78 1 -172 l3 -171 44 0 45 0 0 109 c0 94 3 112
21 135 24 30 69 35 93 10 13 -12 16 -40 16 -135 l0 -119 50 0 50 0 0 118 c0
142 -18 194 -74 217 -47 20 -74 19 -119 -4 -27 -14 -37 -15 -37 -6 0 8 -17 14
-46 17 -25 2 -46 2 -47 1z"/>
<path d="M3935 1166 c-84 -37 -121 -153 -79 -242 36 -75 136 -106 214 -65 22
11 40 19 40 17 0 -2 -5 -17 -11 -35 -20 -56 -105 -79 -170 -45 -17 8 -32 14
-34 12 -1 -2 -10 -18 -19 -36 l-17 -33 46 -20 c56 -25 136 -27 186 -6 20 8 49
32 65 53 l29 37 3 184 3 183 -45 0 c-34 0 -46 -4 -46 -15 0 -19 -3 -19 -42 5
-38 23 -80 25 -123 6z m139 -96 c28 -27 25 -94 -4 -125 -64 -68 -162 12 -125
102 23 54 86 66 129 23z"/>
<path d="M4346 1165 c-63 -24 -69 -32 -44 -65 20 -27 22 -28 54 -14 41 17 96
18 112 2 25 -25 12 -35 -54 -42 -108 -11 -144 -39 -144 -111 0 -29 8 -45 34
-71 30 -30 41 -34 84 -34 35 0 57 6 76 21 l26 20 0 -20 c0 -18 6 -21 45 -21
l45 0 0 120 c0 133 -12 177 -54 205 -35 23 -131 28 -180 10z m134 -204 c0 -23
-22 -47 -51 -56 -20 -7 -69 17 -69 35 0 22 34 40 76 40 37 0 44 -3 44 -19z"/>
<path d="M4797 1161 c-29 -15 -37 -16 -37 -5 0 10 -13 14 -45 14 l-45 0 0
-170 0 -170 45 0 45 0 0 109 c0 94 3 112 21 135 24 30 69 35 93 10 13 -12 16
-40 16 -135 l0 -119 50 0 50 0 0 118 c0 142 -18 194 -74 217 -47 20 -74 19
-119 -4z"/>
<path d="M4070 615 c0 -8 7 -15 15 -15 8 0 15 7 15 15 0 8 -7 15 -15 15 -8 0
-15 -7 -15 -15z"/>
<path d="M3543 589 c-7 -15 -18 -29 -25 -32 -9 -4 -10 -8 -2 -14 7 -4 13 -41
16 -81 2 -50 8 -76 18 -82 20 -13 70 -13 70 0 0 6 -8 10 -18 10 -31 0 -42 22
-42 87 l0 63 30 0 c17 0 30 5 30 10 0 6 -13 10 -29 10 -25 0 -30 5 -33 28 l-4
27 -11 -26z"/>
<path d="M3165 556 c-33 -14 -55 -52 -55 -92 0 -38 27 -83 54 -90 34 -8 79 -1
84 14 3 10 -4 12 -31 7 -45 -9 -77 20 -77 68 0 51 25 79 68 75 22 -2 37 2 40
10 2 6 -3 12 -11 12 -9 0 -21 2 -29 5 -7 2 -27 -2 -43 -9z"/>
<path d="M3356 560 c-51 -9 -43 -29 11 -27 45 2 48 0 48 -23 0 -22 -5 -26 -42
-31 -23 -3 -48 -11 -57 -18 -19 -16 -21 -62 -4 -79 16 -16 80 -15 97 1 11 10
14 10 18 0 13 -35 23 -5 23 65 0 103 -20 127 -94 112z m64 -118 c0 -45 -80
-71 -88 -29 -5 28 17 47 54 47 26 0 34 -4 34 -18z"/>
<path d="M3732 562 c-28 -4 -62 -56 -62 -94 0 -65 40 -102 105 -96 56 4 56 25
0 24 -35 -1 -50 4 -61 18 -27 38 -18 46 51 46 63 0 65 1 65 26 0 52 -42 85
-98 76z m56 -34 c7 -7 12 -20 12 -30 0 -15 -8 -18 -44 -18 -52 0 -61 9 -40 38
17 24 53 29 72 10z"/>
<path d="M3970 563 c-8 -3 -21 -12 -27 -21 -12 -14 -13 -14 -13 1 0 9 -7 17
-15 17 -12 0 -15 -17 -15 -95 0 -78 3 -95 15 -95 12 0 15 14 15 65 0 71 20
105 61 105 11 0 19 5 17 12 -5 14 -18 18 -38 11z"/>
<path d="M4255 562 c-11 -2 -26 -9 -32 -14 -9 -7 -13 -7 -13 1 0 6 -7 11 -15
11 -12 0 -15 -17 -15 -95 0 -78 3 -95 15 -95 12 0 15 14 15 68 0 74 16 102 56
102 35 0 44 -21 44 -97 0 -58 3 -73 15 -73 12 0 15 15 15 78 0 42 -4 82 -8 89
-10 16 -53 30 -77 25z"/>
<path d="M4458 560 c-12 -3 -30 -18 -38 -33 -13 -25 -13 -30 1 -56 11 -19 14
-33 7 -45 -6 -11 -6 -21 1 -29 7 -9 5 -16 -10 -25 -23 -15 -25 -55 -3 -73 9
-7 38 -12 67 -12 42 1 55 5 74 27 27 32 28 36 9 61 -9 12 -31 21 -62 24 -57 7
-70 34 -19 39 42 5 65 29 65 69 0 23 5 33 15 33 8 0 15 4 15 9 0 11 -89 18
-122 11z m62 -40 c15 -28 -4 -60 -34 -60 -32 0 -50 24 -42 55 5 20 13 25 36
25 19 0 33 -7 40 -20z m25 -160 c3 -5 1 -19 -5 -30 -8 -15 -21 -20 -56 -20
-46 0 -62 14 -50 45 6 17 101 22 111 5z"/>
<path d="M4070 465 c0 -78 3 -95 15 -95 12 0 15 17 15 95 0 78 -3 95 -15 95
-12 0 -15 -17 -15 -95z"/>
</g>
</svg>
