<svg xmlns="http://www.w3.org/2000/svg" xmlns:xlink="http://www.w3.org/1999/xlink" version="1.1" id="Livello_1" x="0px" y="0px" width="100px" height="100px" viewBox="0 0 100 100" enable-background="new 0 0 100 100" xml:space="preserve">
<g>
	<path d="M96.666,29.926c-0.783-3.392-2.84-6.275-5.792-8.119c-2.386-1.491-4.795-2.253-7.098-2.325   c2.086-1.488,4.571-2.313,7.188-2.338c0.828-0.008,1.493-0.686,1.485-1.514c-0.008-0.829-0.715-1.525-1.515-1.486   c-1.865,0.018-3.681,0.36-5.377,1c0.639-1.694,0.981-3.636,1-5.499C86.566,8.817,85.901,8,85.073,8c-0.005,0-0.01,0-0.015,0   c-0.822,0-1.492,0.793-1.5,1.616c-0.026,2.702-0.91,5.33-2.497,7.458c-0.029-2.368-0.799-4.82-2.332-7.275   c-3.807-6.092-11.865-7.935-17.957-4.13c-0.703,0.439-0.917,1.373-0.479,2.075s1.364,0.921,2.066,0.482   c4.69-2.928,10.895-1.497,13.824,3.193c1.238,1.983,2.832,5.576,1.156,9.117c-3.694,2.264-8.133,2.425-12.168,0.299   c-18.834-9.89-34.909-7.776-49.146,6.463C0.151,43.173,0.146,69.001,16.016,84.873c7.936,7.935,18.357,11.901,28.782,11.901   c10.427-0.001,20.855-3.971,28.794-11.909c13.873-13.874,16.019-30.434,6.374-49.221c-2.072-4.018-1.833-8.836,0.427-12.548   c3.465-1.506,6.944,0.038,8.892,1.255c2.272,1.419,3.855,3.638,4.459,6.249c0.603,2.611,0.152,5.3-1.268,7.573   c-0.438,0.703-0.225,1.628,0.478,2.067c0.247,0.155,0.522,0.228,0.794,0.228c0.5,0,0.988-0.25,1.273-0.705   C96.864,36.811,97.449,33.317,96.666,29.926z M71.471,82.744c-14.707,14.705-38.633,14.707-53.334,0.008   C3.438,68.05,3.442,44.125,18.147,29.42c7.837-7.838,16.061-11.728,25.103-11.728c6.384,0,13.177,1.94,20.526,5.799   c4.101,2.16,8.661,2.372,12.713,0.792c0.006,0.005,0.013,0.008,0.019,0.013c-1.475,4.062-1.273,8.717,0.791,12.72   C86.278,54.511,84.318,69.896,71.471,82.744z"/>
	<path d="M65.723,43.402c0.587-0.585,0.587-1.535,0.002-2.121c-0.585-0.585-1.534-0.587-2.121-0.002   c-0.985,0.982-2.589,0.985-3.572,0.002c-0.983-0.984-0.983-2.587,0.001-3.572c0.585-0.586,0.585-1.536-0.001-2.121   c-0.586-0.585-1.536-0.586-2.122,0.001c-2.152,2.154-2.152,5.659,0.001,7.813c1.076,1.075,2.49,1.613,3.905,1.613   C63.229,45.016,64.646,44.478,65.723,43.402z"/>
	<path d="M46.275,38.05c0.586-0.586,0.586-1.536,0-2.122c-0.586-0.585-1.537-0.585-2.121,0c-0.984,0.984-2.585,0.984-3.567,0.001   c-0.478-0.477-0.74-1.111-0.74-1.786s0.263-1.308,0.739-1.784c0.587-0.585,0.587-1.535,0.002-2.122   c-0.586-0.586-1.535-0.587-2.121-0.001c-1.045,1.043-1.62,2.431-1.62,3.907c0,1.476,0.575,2.863,1.62,3.908   c1.076,1.075,2.489,1.613,3.903,1.613C43.785,39.666,45.199,39.127,46.275,38.05z"/>
	<path d="M68.95,60.727c-0.476,0.476-1.108,0.738-1.783,0.738c-0.674,0-1.307-0.262-1.782-0.737c-0.477-0.478-0.74-1.111-0.74-1.786   c0-0.674,0.264-1.308,0.74-1.785c0.586-0.586,0.586-1.535,0-2.121s-1.535-0.586-2.121,0c-2.154,2.154-2.154,5.427,0,7.581   C64.306,63.658,65.691,64,67.166,64c0.001,0,0.002,0,0.003,0c1.476,0,2.862-0.343,3.904-1.387c0.585-0.586,0.585-1.419-0.002-2.005   C70.487,60.024,69.536,60.139,68.95,60.727z"/>
	<path d="M50.498,58.625c0.587-0.586,0.587-1.535,0.002-2.121c-0.586-0.588-1.537-0.586-2.121-0.002   c-0.986,0.984-2.586,0.984-3.57,0c-0.477-0.477-0.739-1.11-0.739-1.784c0-0.673,0.263-1.307,0.739-1.782   c0.587-0.585,0.587-1.535,0.002-2.121s-1.534-0.588-2.121-0.002c-1.045,1.043-1.62,2.43-1.62,3.905s0.575,2.863,1.619,3.906   c1.076,1.076,2.49,1.614,3.905,1.614C48.008,60.238,49.422,59.7,50.498,58.625z"/>
	<path d="M27.151,55c1.476,0,2.862-0.63,3.903-1.674c0.586-0.587,0.584-1.562-0.002-2.148c-0.587-0.585-1.536-0.596-2.121-0.011   c-0.476,0.477-1.108,0.732-1.781,0.732c-0.001,0-0.001-0.004-0.001-0.004c-0.675,0-1.309-0.264-1.787-0.742   c-0.477-0.477-0.738-1.11-0.738-1.784s0.263-1.309,0.739-1.786c0.586-0.585,0.586-1.536,0-2.122c-0.586-0.586-1.535-0.586-2.121,0   c-1.044,1.043-1.618,2.431-1.618,3.906c0,1.476,0.574,2.917,1.618,3.959C24.285,54.371,25.673,55,27.149,55   C27.149,55,27.15,55,27.151,55z"/>
	<path d="M53.732,75.947c-0.988,0.984-2.59,0.985-3.572,0.001c-0.982-0.983-0.982-2.585,0.001-3.569   c0.585-0.586,0.585-1.535-0.002-2.121c-0.584-0.584-1.535-0.586-2.121,0.002c-2.15,2.153-2.15,5.657,0,7.809   c1.076,1.078,2.49,1.616,3.906,1.616c1.414,0,2.829-0.538,3.907-1.614c0.587-0.585,0.587-1.535,0.002-2.121   C55.269,75.361,54.319,75.363,53.732,75.947z"/>
	<path d="M33.153,71.727c-0.476,0.477-1.107,0.738-1.78,0.739c-0.001,0-0.001,0-0.001,0c-0.675-0.001-1.308-0.263-1.786-0.741   c-0.477-0.476-0.739-1.108-0.739-1.782s0.263-1.309,0.74-1.786c0.586-0.585,0.586-1.535,0-2.121s-1.535-0.586-2.121,0   c-1.045,1.044-1.62,2.432-1.619,3.908c0,1.476,0.575,2.629,1.619,3.67C28.509,74.658,29.896,75,31.372,75c0,0,0.001,0,0.002,0   c1.476,0,2.861-0.344,3.902-1.387c0.586-0.588,0.584-1.42-0.002-2.005C34.688,71.021,33.738,71.141,33.153,71.727z"/>
</g>
</svg>