<?xml version="1.0"?>
<svg width="156" height="153" xmlns="http://www.w3.org/2000/svg" xmlns:svg="http://www.w3.org/2000/svg" xmlns:xlink="http://www.w3.org/1999/xlink">
 <!-- Created with SVG-edit - http://svg-edit.googlecode.com/ -->
 <defs>
  <symbol viewBox="0 0 100 100" height="100px" width="100px" y="0px" x="0px" id="svg_2" xmlns:xlink="http://www.w3.org/1999/xlink" xmlns="http://www.w3.org/2000/svg">
   <g>
    <path d="m96.666,29.926001c-0.782997,-3.392 -2.840004,-6.275 -5.792,-8.119001c-2.386002,-1.490999 -4.794998,-2.252998 -7.098,-2.324999c2.085999,-1.488001 4.570999,-2.313 7.187996,-2.338001c0.828003,-0.007999 1.493004,-0.685999 1.485001,-1.513999c-0.007996,-0.829 -0.714996,-1.525001 -1.514999,-1.486c-1.864998,0.018 -3.681,0.36 -5.376999,1c0.639,-1.694 0.981003,-3.636 1,-5.499c0.009003,-0.828 -0.655998,-1.645 -1.484001,-1.645c-0.004997,0 -0.009995,0 -0.014999,0c-0.821999,0 -1.491997,0.793 -1.5,1.616c-0.026001,2.702 -0.909996,5.33 -2.497002,7.457999c-0.028999,-2.367999 -0.798996,-4.82 -2.332001,-7.275c-3.806999,-6.092 -11.864998,-7.935 -17.956997,-4.13c-0.702999,0.439 -0.917,1.373 -0.479,2.075s1.364002,0.921 2.066002,0.482c4.690002,-2.928 10.894997,-1.497 13.823997,3.193c1.237999,1.983001 2.832001,5.576001 1.155998,9.117c-3.694,2.264 -8.132996,2.425001 -12.167999,0.299c-18.833996,-9.889999 -34.908998,-7.775999 -49.145998,6.463001c-15.874,15.875 -15.879,41.702999 -0.008999,57.575001c7.935999,7.934998 18.357,11.901001 28.782,11.901001c10.426998,-0.000999 20.855,-3.971001 28.794003,-11.909004c13.872993,-13.874001 16.018997,-30.433998 6.374001,-49.220997c-2.072006,-4.018002 -1.833,-8.836 0.426994,-12.548c3.465004,-1.506001 6.944,0.038 8.892006,1.254999c2.271996,1.419001 3.854996,3.638 4.459,6.249001c0.602997,2.610998 0.152,5.300001 -1.268005,7.573c-0.437996,0.702999 -0.224998,1.627998 0.478004,2.067001c0.246994,0.154999 0.521996,0.227997 0.793999,0.227997c0.5,0 0.987999,-0.25 1.273003,-0.704998c1.842995,-2.952 2.427994,-6.445999 1.644997,-9.837zm-25.195,52.818003c-14.707001,14.704994 -38.632999,14.706993 -53.334002,0.007996c-14.698999,-14.701996 -14.694999,-38.626999 0.01,-53.331999c7.837,-7.837999 16.061001,-11.728001 25.103001,-11.728001c6.383999,0 13.176998,1.940001 20.526001,5.799c4.100998,2.160002 8.660995,2.372002 12.712997,0.792002c0.006004,0.004999 0.013,0.007999 0.019005,0.012999c-1.475006,4.062 -1.273003,8.717001 0.791,12.719999c8.978996,17.495003 7.018997,32.880005 -5.828003,45.728004z"/>
    <path d="m65.723,43.402c0.586998,-0.584999 0.586998,-1.535 0.001999,-2.121002c-0.584999,-0.584999 -1.533997,-0.586998 -2.120998,-0.001999c-0.985001,0.982002 -2.589001,0.985001 -3.571999,0.001999c-0.983002,-0.983997 -0.983002,-2.586998 0.000999,-3.571999c0.584999,-0.585999 0.584999,-1.535999 -0.000999,-2.120998c-0.586002,-0.585003 -1.536003,-0.586002 -2.122002,0.000999c-2.152,2.153999 -2.152,5.659 0.000999,7.813c1.076,1.075001 2.490002,1.612999 3.905003,1.612999c1.412998,0.000999 2.830002,-0.536999 3.906998,-1.612999z"/>
    <path d="m46.275002,38.049999c0.585999,-0.585999 0.585999,-1.535999 0,-2.121998c-0.586002,-0.585003 -1.537003,-0.585003 -2.121002,0c-0.984001,0.983997 -2.584999,0.983997 -3.566998,0.000999c-0.478001,-0.477001 -0.740002,-1.111 -0.740002,-1.785999s0.263,-1.308002 0.738998,-1.784c0.587002,-0.585001 0.587002,-1.535002 0.002003,-2.122002c-0.586002,-0.585999 -1.535,-0.587 -2.121002,-0.000999c-1.044998,1.042999 -1.619999,2.431 -1.619999,3.907001c0,1.475998 0.575001,2.862999 1.619999,3.907997c1.076,1.075001 2.489002,1.613003 3.903,1.613003c1.415001,0.001999 2.829002,-0.537003 3.905003,-1.614002z"/>
    <path d="m68.949997,60.727001c-0.475998,0.475998 -1.107994,0.737999 -1.782997,0.737999c-0.674004,0 -1.306999,-0.262001 -1.781998,-0.737c-0.477005,-0.478001 -0.740005,-1.111 -0.740005,-1.785999c0,-0.674 0.264,-1.308002 0.740005,-1.785c0.585999,-0.586002 0.585999,-1.535 0,-2.121002s-1.535004,-0.585999 -2.121002,0c-2.153999,2.153999 -2.153999,5.427002 0,7.581001c1.042,1.041 2.427002,1.382999 3.902,1.382999c0.000999,0 0.001999,0 0.002998,0c1.475998,0 2.862,-0.342999 3.903999,-1.387001c0.584999,-0.585999 0.584999,-1.418999 -0.001999,-2.004997c-0.584,-0.584003 -1.534996,-0.469002 -2.121002,0.118999z"/>
    <path d="m50.498001,58.625c0.586998,-0.585999 0.586998,-1.535 0.001999,-2.120998c-0.585999,-0.588001 -1.536999,-0.586002 -2.120998,-0.002003c-0.986,0.984001 -2.586002,0.984001 -3.570004,0c-0.476997,-0.476997 -0.738998,-1.110001 -0.738998,-1.784c0,-0.673 0.263,-1.306999 0.738998,-1.781998c0.587002,-0.584999 0.587002,-1.535 0.002003,-2.121002s-1.534,-0.587997 -2.121002,-0.001999c-1.044998,1.042999 -1.619999,2.43 -1.619999,3.904999s0.575001,2.863003 1.618999,3.906002c1.076,1.076 2.490002,1.613998 3.905003,1.613998c1.413998,0 2.827999,-0.537998 3.903999,-1.612999z"/>
    <path d="m27.150999,55c1.476002,0 2.862001,-0.630001 3.903002,-1.674c0.585999,-0.587002 0.584,-1.562 -0.002001,-2.147999c-0.587,-0.585003 -1.535999,-0.596001 -2.121,-0.011002c-0.476,0.477001 -1.108,0.731998 -1.781,0.731998c-0.000999,0 -0.000999,-0.003998 -0.000999,-0.003998c-0.674999,0 -1.309,-0.264 -1.787001,-0.742001c-0.476999,-0.477001 -0.737999,-1.110001 -0.737999,-1.784s0.262999,-1.308998 0.739,-1.785999c0.585999,-0.584999 0.585999,-1.535999 0,-2.122002c-0.586,-0.585999 -1.535002,-0.585999 -2.121,0c-1.044001,1.043003 -1.618,2.431 -1.618,3.906002c0,1.475998 0.573999,2.917 1.618,3.959c1.042999,1.044998 2.431,1.674 3.907,1.674c0,0 0.000999,0 0.001999,0z"/>
    <path d="m53.731998,75.946999c-0.987999,0.984001 -2.59,0.985001 -3.571999,0.000999c-0.981998,-0.983002 -0.981998,-2.584999 0.000999,-3.569c0.584999,-0.585999 0.584999,-1.534996 -0.001999,-2.120995c-0.584,-0.584 -1.535,-0.586006 -2.121002,0.001999c-2.149998,2.153 -2.149998,5.656998 0,7.808998c1.076,1.078003 2.490002,1.615997 3.906002,1.615997c1.414001,0 2.828999,-0.537994 3.907001,-1.613998c0.586998,-0.584999 0.586998,-1.534996 0.001999,-2.121002c-0.584,-0.588997 -1.534,-0.586998 -2.121002,-0.002998z"/>
    <path d="m33.153,71.726997c-0.475998,0.477005 -1.106998,0.737999 -1.780001,0.739006c-0.000999,0 -0.000999,0 -0.000999,0c-0.674999,-0.001007 -1.308001,-0.263 -1.785999,-0.741005c-0.477001,-0.475998 -0.739,-1.108002 -0.739,-1.781998s0.263,-1.308998 0.74,-1.786003c0.586,-0.584999 0.586,-1.534996 0,-2.120995s-1.535,-0.586006 -2.121,0c-1.045,1.043999 -1.619999,2.431999 -1.618999,3.907997c0,1.475998 0.575001,2.628998 1.618999,3.669998c1.043001,1.043999 2.43,1.386002 3.906,1.386002c0,0 0.000999,0 0.002001,0c1.475998,0 2.861,-0.344002 3.902,-1.387001c0.585999,-0.587997 0.584,-1.419998 -0.002003,-2.004997c-0.585999,-0.586998 -1.535999,-0.467003 -2.120998,0.118996z"/>
   </g>
  </symbol>
 </defs>
 <g>
  <title>Layer 1</title>
  <use fill="#c0392b" x="-0.771" y="-1.863999" transform="matrix(1.600000023841858,0,0,1.600000023841858,0,0) " xlink:href="#svg_2" id="svg_3"/>
 </g>
</svg>